<svg width="16" height="16" viewBox="0 0 16 16" fill="none" xmlns="http://www.w3.org/2000/svg">
<path d="M11.333 8.93268V10.9327C11.333 13.5993 10.2663 14.666 7.59967 14.666H5.06634C2.39967 14.666 1.33301 13.5993 1.33301 10.9327V8.39935C1.33301 5.73268 2.39967 4.66602 5.06634 4.66602H7.06634" stroke="#B1B1B6" stroke-width="1.5" stroke-linecap="round" stroke-linejoin="round"/>
<path d="M11.3321 8.93268H9.19876C7.59876 8.93268 7.06543 8.39935 7.06543 6.79935V4.66602L11.3321 8.93268Z" stroke="#B1B1B6" stroke-width="1.5" stroke-linecap="round" stroke-linejoin="round"/>
<path d="M7.73242 1.33398H10.3991" stroke="#B1B1B6" stroke-width="1.5" stroke-linecap="round" stroke-linejoin="round"/>
<path d="M4.66699 3.33398C4.66699 2.22732 5.56033 1.33398 6.66699 1.33398H8.41366" stroke="#B1B1B6" stroke-width="1.5" stroke-linecap="round" stroke-linejoin="round"/>
<path d="M14.6683 5.33398V9.46065C14.6683 10.494 13.8283 11.334 12.7949 11.334" stroke="#B1B1B6" stroke-width="1.5" stroke-linecap="round" stroke-linejoin="round"/>
<path d="M14.667 5.33398H12.667C11.167 5.33398 10.667 4.83398 10.667 3.33398V1.33398L14.667 5.33398Z" stroke="#B1B1B6" stroke-width="1.5" stroke-linecap="round" stroke-linejoin="round"/>
</svg>
