<svg width="92" height="54" viewBox="0 0 92 54" fill="none" xmlns="http://www.w3.org/2000/svg">
<g clip-path="url(#clip0_1001_22379)">
<path d="M15.1045 4.30162C14.918 6.67622 12.8542 7.45946 10.3055 7.45946C7.7569 7.45946 5.48176 6.62649 5.49419 3.95351V3.44378C5.48176 0.770811 7.66987 0 10.3055 0C12.9412 0 14.918 0.721081 15.1045 3.09568H12.2947C12.0337 2.39946 11.2504 2.23784 10.3055 2.23784C9.36068 2.23784 8.22933 2.48649 8.25419 3.61784V3.72973C8.25419 4.88595 9.18663 5.0973 10.3055 5.10973C11.4245 5.12216 12.0461 4.93568 12.2947 4.25189L15.1045 4.30162Z" fill="#FAFAFA"/>
<path d="M25.4118 3.44378V3.95351C25.4118 6.61405 23.2486 7.38486 20.6005 7.3973C17.9524 7.40973 15.7767 6.61405 15.7891 3.95351V3.44378C15.7767 0.770811 17.9524 0 20.6005 0C23.2486 0 25.4118 0.770811 25.4118 3.44378ZM22.6642 3.60541C22.6642 2.46162 21.7194 2.25027 20.6005 2.23784C19.4815 2.22541 18.5118 2.48649 18.5367 3.60541V3.72973C18.5367 4.88595 19.4691 5.0973 20.6005 5.10973C21.7318 5.12216 22.6767 4.97297 22.6642 3.72973V3.60541Z" fill="#FAFAFA"/>
<path d="M33.0958 0.173828H35.8434V7.22302H32.7477L28.9683 2.9214V7.22302H26.2207V0.173828H30.0002L33.0958 3.90356V0.173828Z" fill="#FAFAFA"/>
<path d="M40.0686 7.23474V2.41095H36.7988V0.185547H46.0859V2.41095H42.8161V7.23474H40.0686Z" fill="#FAFAFA"/>
<path d="M49.7417 0.173828H46.9941V7.22302H49.7417V0.173828Z" fill="#FAFAFA"/>
<path d="M58.0841 0.173828H60.8317V7.22302H57.736L53.9566 2.9214V7.22302H51.209V0.173828H54.9884L58.0841 3.90356V0.173828Z" fill="#FAFAFA"/>
<path d="M62.4355 0.185547H70.6782V1.98825H65.1831V2.88338H70.6782V4.51203H65.1831V5.4196H70.6782V7.23474H62.4355V0.185547Z" fill="#FAFAFA"/>
<path d="M79.0079 0.173828H81.7679V7.22302H78.6723L74.8804 2.9214V7.22302H72.1328V0.173828H75.9123L79.0079 3.90356V0.173828Z" fill="#FAFAFA"/>
<path d="M85.9826 7.23474V2.41095H82.7129V0.185547H91.9999V2.41095H88.7302V7.23474H85.9826Z" fill="#FAFAFA"/>
<path d="M22.9502 26.3311L26.4686 20.1895C28.6491 21.4435 30.539 23.1457 32.0134 25.1837C33.4878 27.2217 34.5132 29.5493 35.0221 32.0127H91.9999V39.0868H35.0221C34.431 41.9854 33.1226 44.6895 31.2163 46.9518C29.3101 49.214 26.867 50.9622 24.1106 52.0362C21.3542 53.1103 18.3725 53.476 15.4382 53.0999C12.5039 52.7238 9.7108 51.6178 7.31439 49.8833C4.91797 48.1487 2.99478 45.841 1.72076 43.1711C0.446746 40.5012 -0.137421 37.5544 0.0217109 34.6004C0.180842 31.6464 1.07819 28.7795 2.63166 26.2619C4.18512 23.7443 6.34511 21.6565 8.91399 20.1895L12.4324 26.3311C10.399 27.4922 8.80659 29.293 7.90286 31.4531C6.99914 33.6132 6.83483 36.0115 7.43552 38.2746C8.0362 40.5378 9.36818 42.5389 11.2242 43.9665C13.0801 45.3942 15.356 46.1682 17.6975 46.1682C20.039 46.1682 22.3149 45.3942 24.1709 43.9665C26.0268 42.5389 27.3588 40.5378 27.9595 38.2746C28.5602 36.0115 28.3959 33.6132 27.4921 31.4531C26.5884 29.293 24.996 27.4922 22.9626 26.3311" fill="#FAFAFA"/>
</g>
<defs>
<clipPath id="clip0_1001_22379">
<rect width="92" height="53.2357" fill="white"/>
</clipPath>
</defs>
</svg>
