<svg width="24" height="25" viewBox="0 0 24 25" fill="none" xmlns="http://www.w3.org/2000/svg">
<path d="M22 6.75V11.85C22 13.12 21.58 14.19 20.83 14.93C20.09 15.68 19.02 16.1 17.75 16.1V17.91C17.75 18.59 16.99 19 16.43 18.62L15.46 17.98C15.55 17.67 15.59 17.33 15.59 16.97V12.9C15.59 10.86 14.23 9.5 12.19 9.5H5.39999C5.25999 9.5 5.13 9.51002 5 9.52002V6.75C5 4.2 6.7 2.5 9.25 2.5H17.75C20.3 2.5 22 4.2 22 6.75Z" stroke="#FAFAFA" stroke-width="1.5" stroke-miterlimit="10" stroke-linecap="round" stroke-linejoin="round"/>
<path d="M15.59 12.9V16.97C15.59 17.33 15.55 17.67 15.46 17.98C15.09 19.45 13.87 20.37 12.19 20.37H9.47L6.45 22.38C6 22.69 5.39999 22.36 5.39999 21.82V20.37C4.37999 20.37 3.53 20.03 2.94 19.44C2.34 18.84 2 17.99 2 16.97V12.9C2 11 3.18 9.69002 5 9.52002C5.13 9.51002 5.25999 9.5 5.39999 9.5H12.19C14.23 9.5 15.59 10.86 15.59 12.9Z" stroke="#FAFAFA" stroke-width="1.5" stroke-miterlimit="10" stroke-linecap="round" stroke-linejoin="round"/>
</svg>
