<svg width="22" height="22" viewBox="0 0 22 22" fill="none" xmlns="http://www.w3.org/2000/svg">
<path fill-rule="evenodd" clip-rule="evenodd" d="M5.75 6.75C5.50575 6.75 5.27397 6.76744 5.05404 6.80128L5.03339 6.80416C3.92606 6.94312 3.05559 7.41721 2.45955 8.11651C1.86197 8.81761 1.5 9.79286 1.5 11V16C1.5 17.3296 1.93991 18.3793 2.65533 19.0947C3.37075 19.8101 4.42044 20.25 5.75 20.25H15.75C17.0796 20.25 18.1293 19.8101 18.8447 19.0947C19.5601 18.3793 20 17.3296 20 16V11C20 9.7847 19.6317 8.80336 19.0247 8.09999C18.4191 7.39822 17.5351 6.92541 16.4134 6.79497C16.4011 6.79354 16.3889 6.79181 16.3767 6.78978C16.1968 6.7598 15.9946 6.75 15.75 6.75H5.75ZM4.83633 5.31713C5.13313 5.27204 5.43789 5.25 5.75 5.25H15.75C16.0197 5.25 16.3108 5.25975 16.6045 5.30711C18.055 5.47974 19.2895 6.1109 20.1603 7.12C21.0333 8.13163 21.5 9.4753 21.5 11V16C21.5 17.6704 20.9399 19.1207 19.9053 20.1553C18.8707 21.1899 17.4204 21.75 15.75 21.75H5.75C4.07956 21.75 2.62925 21.1899 1.59467 20.1553C0.560085 19.1207 0 17.6704 0 16V11C0 9.48713 0.45803 8.15239 1.31795 7.14349C2.17737 6.13519 3.39812 5.4999 4.83633 5.31713Z" fill="#FAFAFA"/>
<path fill-rule="evenodd" clip-rule="evenodd" d="M9.30109 2.55098L6.61035 5.25001H15.5732C15.4406 4.91449 15.2353 4.60015 14.9553 4.32451L14.948 4.31738L13.2007 2.54997C12.1234 1.48301 10.378 1.48335 9.30109 2.55098ZM4.99108 4.74968L8.24302 1.48773C9.90546 -0.162581 12.5974 -0.162573 14.2598 1.48773L14.2648 1.49268L16.0113 3.25925C16.7851 4.02278 17.2017 4.99997 17.2505 6.0139C17.2615 6.24042 17.1693 6.45972 16.9998 6.61043C16.8304 6.76114 16.6018 6.82708 16.3781 6.7898C16.1982 6.75982 15.996 6.75001 15.7514 6.75001H5.75141C5.50716 6.75001 5.27538 6.76746 5.05545 6.80129C4.77831 6.84393 4.50052 6.7284 4.33534 6.50181C4.17017 6.27522 4.14519 5.97541 4.27059 5.7246C4.45465 5.35648 4.70863 5.0322 4.99108 4.74968C4.99121 4.74955 4.99095 4.74981 4.99108 4.74968Z" fill="#FAFAFA"/>
<path fill-rule="evenodd" clip-rule="evenodd" d="M15 13.5C15 11.9858 16.2358 10.75 17.75 10.75H20.75C21.1642 10.75 21.5 11.0858 21.5 11.5C21.5 11.9142 21.1642 12.25 20.75 12.25H17.75C17.0642 12.25 16.5 12.8142 16.5 13.5C16.5 14.1858 17.0642 14.75 17.75 14.75H20.75C21.1642 14.75 21.5 15.0858 21.5 15.5C21.5 15.9142 21.1642 16.25 20.75 16.25H17.75C16.2358 16.25 15 15.0142 15 13.5Z" fill="#FAFAFA"/>
</svg>
